<svg xmlns="http://www.w3.org/2000/svg" viewBox="11 10 42 44" fill="none"><path d="M45.87 14.08L45.82 14.07L45.52 13.98L45.48 13.97L45.18 13.89L45.13 13.87L44.84 13.79L44.79 13.78L44.50 13.71L44.45 13.70L44.16 13.62L44.11 13.61L43.82 13.55L43.77 13.54L43.49 13.48L43.44 13.46L43.15 13.41L43.10 13.40L42.82 13.34L42.77 13.34L42.49 13.29L42.44 13.28L42.16 13.23L42.11 13.22L41.83 13.18L41.78 13.18L41.50 13.14L41.45 13.13L41.18 13.10L41.13 13.09L40.86 13.06L40.80 13.06L40.54 13.03L40.48 13.03L40.22 13.01L40.16 13.00L39.90 12.98L39.84 12.98L39.58 12.97L39.53 12.96L39.27 12.95L39.21 12.95L38.96 12.94L38.90 12.94L38.65 12.94L38.59 12.94L38.34 12.94L38.28 12.94L38.03 12.94L37.98 12.94L37.73 12.95L37.67 12.95L37.42 12.96L37.37 12.97L37.12 12.98L37.07 12.98L36.83 13.00L36.77 13.01L36.53 13.03L36.47 13.03L36.24 13.05L36.18 13.06L35.94 13.09L35.89 13.10L35.65 13.13L35.59 13.13L35.37 13.17L35.31 13.18L35.08 13.21L35.02 13.22L34.80 13.26L34.74 13.27L34.52 13.31L34.46 13.33L34.24 13.37L34.18 13.38L33.96 13.43L33.90 13.45L33.69 13.50L33.63 13.51L33.42 13.57L33.36 13.58L33.15 13.64L33.09 13.66L32.88 13.72L32.82 13.73L32.62 13.80L32.56 13.81L32.36 13.88L32.30 13.90L32.10 13.97L32.04 13.99L31.84 14.06L31.78 14.08L31.59 14.15L31.53 14.18L31.34 14.25L31.28 14.27L31.09 14.35L31.03 14.38L30.85 14.46L30.79 14.48L30.61 14.57L30.55 14.59L30.37 14.68L30.31 14.71L30.13 14.80L30.07 14.82L29.90 14.91L29.84 14.95L29.67 15.04L29.61 15.07L29.44 15.16L29.38 15.20L29.21 15.29L29.16 15.33L28.99 15.42L28.93 15.46L28.77 15.56L28.72 15.60L28.56 15.70L28.50 15.74L28.35 15.84L28.29 15.88L28.14 15.99L28.08 16.03L27.93 16.14L27.88 16.18L27.73 16.29L27.67 16.33L27.53 16.44L27.48 16.49L27.34 16.60L27.28 16.65L27.14 16.76L27.09 16.81L26.96 16.92L26.90 16.97L26.77 17.09L26.72 17.14L26.59 17.26L26.54 17.31L26.41 17.43L26.36 17.49L26.24 17.61L26.19 17.66L26.07 17.79L26.02 17.84L25.90 17.97L25.85 18.03L25.74 18.15L25.69 18.21L25.58 18.34L25.53 18.40L25.42 18.53L25.38 18.59L25.27 18.72L25.22 18.78L25.13 18.92L25.08 18.98L24.98 19.11L24.94 19.18L24.84 19.31L24.80 19.38L24.71 19.52L24.67 19.58L24.58 19.72L24.54 19.79L24.45 19.93L24.41 20.00L24.33 20.14L24.29 20.21L24.21 20.35L24.17 20.43L24.10 20.57L24.06 20.64L23.99 20.78L23.96 20.86L23.89 21.00L23.85 21.08L23.79 21.22L23.76 21.30L23.70 21.45L23.66 21.53L23.61 21.67L23.58 21.76L23.52 21.90L23.50 21.99L23.45 22.13L23.42 22.22L23.37 22.36L23.35 22.45L23.30 22.60L23.28 22.68L23.24 22.83L23.22 22.92L23.18 23.07L23.16 23.16L23.13 23.31L23.11 23.40L23.08 23.55L23.07 23.64L23.04 23.79L23.03 23.88L23.01 24.03L22.99 24.12L22.98 24.27L22.97 24.37L22.95 24.52L22.95 24.61L22.94 24.76L22.93 24.86L22.92 25.01L22.92 25.11L22.92 25.26L22.92 25.36L22.92 25.50L22.92 25.60L22.92 25.75L22.93 25.85L22.94 26.00L22.94 26.10L22.95 26.25L22.96 26.35L22.98 26.50L22.99 26.60L23.01 26.74L23.02 26.84L23.05 26.99L23.06 27.09L23.09 27.24L23.11 27.34L23.14 27.49L23.16 27.59L23.20 27.73L23.22 27.83L23.26 27.98L23.29 28.07L23.33 28.22L23.36 28.32L23.41 28.46L23.44 28.56L23.49 28.70L23.52 28.80L23.57 28.94L23.61 29.04L23.67 29.18L23.71 29.27L23.77 29.42L23.81 29.51L23.88 29.65L23.92 29.74L23.99 29.88L24.03 29.97L24.11 30.11L24.15 30.20L24.23 30.34L24.28 30.42L24.36 30.56L24.41 30.64L24.50 30.78L24.55 30.86L24.64 31.00L24.69 31.08L24.79 31.22L24.84 31.29L24.94 31.43L24.99 31.50L25.10 31.64L25.15 31.71L25.26 31.84L25.32 31.92L25.43 32.05L25.49 32.12L25.60 32.25L25.66 32.32L25.78 32.44L25.84 32.51L25.96 32.64L26.03 32.70L26.15 32.83L26.22 32.89L26.35 33.01L26.41 33.07L26.54 33.20L26.61 33.25L26.75 33.38L26.81 33.43L26.96 33.55L27.02 33.60L27.17 33.72L27.23 33.77L27.38 33.89L27.45 33.94L27.61 34.06L27.67 34.10L27.83 34.22L27.89 34.26L28.06 34.38L28.12 34.42L28.29 34.53L28.36 34.57L28.53 34.68L28.60 34.72L28.77 34.83L28.84 34.86L29.02 34.97L29.08 35.00L29.27 35.11L29.33 35.14L29.53 35.24L29.59 35.28L29.78 35.37L29.85 35.41L30.05 35.50L30.11 35.53L30.31 35.63L30.49 35.71L30.63 35.78L30.76 35.84L30.89 35.91L31.02 35.98L31.14 36.05L31.25 36.12L31.36 36.19L31.47 36.26L31.57 36.33L31.66 36.40L31.76 36.46L31.85 36.53L31.93 36.60L32.01 36.67L32.09 36.73L32.16 36.80L32.23 36.87L32.29 36.93L32.35 36.99L32.41 37.06L32.46 37.12L32.52 37.18L32.56 37.24L32.61 37.30L32.65 37.36L32.69 37.42L32.73 37.47L32.76 37.53L32.80 37.59L32.83 37.64L32.85 37.69L32.88 37.75L32.90 37.80L32.93 37.85L32.95 37.90L32.97 37.95L32.98 38.00L33.00 38.05L33.01 38.10L33.03 38.15L33.04 38.20L33.05 38.24L33.06 38.29L33.06 38.34L33.07 38.39L33.07 38.44L33.08 38.49L33.08 38.54L33.08 38.59L33.08 38.64L33.08 38.69L33.08 38.74L33.08 38.79L33.07 38.84L33.07 38.90L33.06 38.95L33.05 39.00L33.04 39.06L33.03 39.11L33.01 39.17L33.00 39.23L32.98 39.29L32.96 39.35L32.94 39.41L32.92 39.47L32.90 39.53L32.87 39.59L32.84 39.65L32.81 39.72L32.78 39.78L32.75 39.85L32.71 39.91L32.67 39.98L32.63 40.04L32.59 40.11L32.55 40.18L32.50 40.25L32.45 40.32L32.40 40.38L32.35 40.45L32.29 40.52L32.23 40.59L32.17 40.66L32.11 40.73L32.04 40.80L31.97 40.87L31.90 40.94L31.83 41.01L31.75 41.08L31.67 41.14L31.59 41.21L31.51 41.28L31.42 41.35L31.33 41.41L31.24 41.48L31.15 41.55L31.05 41.61L30.95 41.68L30.85 41.74L30.75 41.80L30.64 41.86L30.53 41.92L30.42 41.98L30.31 42.04L30.19 42.10L30.07 42.16L29.95 42.21L29.82 42.27L29.69 42.32L29.56 42.37L29.43 42.42L29.29 42.47L29.15 42.52L29.01 42.56L28.87 42.61L28.72 42.65L28.57 42.69L28.42 42.73L28.27 42.77L28.11 42.80L27.95 42.83L27.79 42.86L27.62 42.89L27.45 42.92L27.28 42.95L27.11 42.97L26.94 42.99L26.76 43.01L26.58 43.02L26.39 43.03L26.21 43.05L26.02 43.05L25.83 43.06L25.63 43.06L25.43 43.06L25.23 43.06L25.03 43.05L24.83 43.05L24.62 43.03L24.41 43.02L24.20 43.00L23.98 42.98L23.76 42.96L23.54 42.93L23.32 42.90L23.10 42.87L22.87 42.83L22.64 42.79L22.40 42.75L22.17 42.70L21.93 42.65L21.69 42.59L21.45 42.53L21.20 42.47L20.95 42.40L20.70 42.33L20.45 42.26L20.17 42.18L19.92 42.11L19.66 42.06L19.40 42.02L19.14 42.00L18.88 42.00L18.62 42.02L18.36 42.05L18.10 42.10L17.85 42.17L17.60 42.25L17.36 42.35L17.12 42.47L16.90 42.60L16.68 42.74L16.47 42.90L16.27 43.07L16.09 43.26L15.91 43.45L15.75 43.66L15.61 43.88L15.48 44.11L15.36 44.34L15.26 44.58L15.18 44.83L15.11 45.08L15.06 45.34L15.02 45.60L15.00 45.86L15.00 46.12L15.02 46.38L15.05 46.64L15.10 46.90L15.17 47.15L15.25 47.40L15.35 47.64L15.47 47.88L15.60 48.10L15.74 48.32L15.90 48.53L16.07 48.73L16.26 48.91L16.45 49.09L16.66 49.25L16.88 49.39L17.11 49.52L17.34 49.64L17.58 49.74L17.83 49.82L18.13 49.92L18.18 49.93L18.48 50.02L18.52 50.03L18.82 50.11L18.87 50.13L19.16 50.21L19.21 50.22L19.50 50.29L19.55 50.30L19.84 50.38L19.89 50.39L20.18 50.45L20.23 50.46L20.51 50.52L20.56 50.54L20.85 50.59L20.90 50.60L21.18 50.66L21.23 50.66L21.51 50.71L21.56 50.72L21.84 50.77L21.89 50.78L22.17 50.82L22.22 50.82L22.50 50.86L22.55 50.87L22.82 50.90L22.87 50.91L23.14 50.94L23.20 50.94L23.46 50.97L23.52 50.97L23.78 50.99L23.84 51.00L24.10 51.02L24.16 51.02L24.42 51.03L24.47 51.04L24.73 51.05L24.79 51.05L25.04 51.06L25.10 51.06L25.35 51.06L25.41 51.06L25.66 51.06L25.72 51.06L25.97 51.06L26.02 51.06L26.27 51.05L26.33 51.05L26.58 51.04L26.63 51.03L26.88 51.02L26.93 51.02L27.17 51.00L27.23 50.99L27.47 50.97L27.53 50.97L27.76 50.95L27.82 50.94L28.06 50.91L28.11 50.90L28.35 50.87L28.41 50.87L28.63 50.83L28.69 50.82L28.92 50.79L28.98 50.78L29.20 50.74L29.26 50.73L29.48 50.69L29.54 50.67L29.76 50.63L29.82 50.62L30.04 50.57L30.10 50.55L30.31 50.50L30.37 50.49L30.58 50.43L30.64 50.42L30.85 50.36L30.91 50.34L31.12 50.28L31.18 50.27L31.38 50.20L31.44 50.19L31.64 50.12L31.70 50.10L31.90 50.03L31.96 50.01L32.16 49.94L32.22 49.92L32.41 49.85L32.47 49.82L32.66 49.75L32.72 49.73L32.91 49.65L32.97 49.62L33.15 49.54L33.21 49.52L33.39 49.43L33.45 49.41L33.63 49.32L33.69 49.29L33.87 49.20L33.93 49.18L34.10 49.09L34.16 49.05L34.33 48.96L34.39 48.93L34.56 48.84L34.62 48.80L34.79 48.71L34.84 48.67L35.01 48.58L35.07 48.54L35.23 48.44L35.28 48.40L35.44 48.30L35.50 48.26L35.65 48.16L35.71 48.12L35.86 48.01L35.92 47.97L36.07 47.86L36.12 47.82L36.27 47.71L36.33 47.67L36.47 47.56L36.52 47.51L36.66 47.40L36.72 47.35L36.86 47.24L36.91 47.19L37.04 47.08L37.10 47.03L37.23 46.91L37.28 46.86L37.41 46.74L37.46 46.69L37.59 46.57L37.64 46.51L37.76 46.39L37.81 46.34L37.93 46.21L37.98 46.16L38.10 46.03L38.15 45.97L38.26 45.85L38.31 45.79L38.42 45.66L38.47 45.60L38.58 45.47L38.62 45.41L38.73 45.28L38.78 45.22L38.87 45.08L38.92 45.02L39.02 44.89L39.06 44.82L39.16 44.69L39.20 44.62L39.29 44.48L39.33 44.42L39.42 44.28L39.46 44.21L39.55 44.07L39.59 44.00L39.67 43.86L39.71 43.79L39.79 43.65L39.83 43.57L39.90 43.43L39.94 43.36L40.01 43.22L40.04 43.14L40.11 43.00L40.15 42.92L40.21 42.78L40.24 42.70L40.30 42.55L40.34 42.47L40.39 42.33L40.42 42.24L40.48 42.10L40.50 42.01L40.55 41.87L40.58 41.78L40.63 41.64L40.65 41.55L40.70 41.40L40.72 41.32L40.76 41.17L40.78 41.08L40.82 40.93L40.84 40.84L40.87 40.69L40.89 40.60L40.92 40.45L40.93 40.36L40.96 40.21L40.97 40.12L40.99 39.97L41.01 39.88L41.02 39.73L41.03 39.63L41.05 39.48L41.05 39.39L41.06 39.24L41.07 39.14L41.08 38.99L41.08 38.89L41.08 38.74L41.08 38.64L41.08 38.50L41.08 38.40L41.08 38.25L41.07 38.15L41.06 38.00L41.06 37.90L41.05 37.75L41.04 37.65L41.02 37.50L41.01 37.40L40.99 37.26L40.98 37.16L40.95 37.01L40.94 36.91L40.91 36.76L40.89 36.66L40.86 36.51L40.84 36.41L40.80 36.27L40.78 36.17L40.74 36.02L40.71 35.93L40.67 35.78L40.64 35.68L40.59 35.54L40.56 35.44L40.51 35.30L40.48 35.20L40.43 35.06L40.39 34.96L40.33 34.82L40.29 34.73L40.23 34.58L40.19 34.49L40.12 34.35L40.08 34.26L40.01 34.12L39.97 34.03L39.89 33.89L39.85 33.80L39.77 33.66L39.72 33.58L39.64 33.44L39.59 33.36L39.50 33.22L39.45 33.14L39.36 33.00L39.31 32.92L39.21 32.78L39.16 32.71L39.06 32.57L39.01 32.50L38.90 32.36L38.85 32.29L38.74 32.16L38.68 32.08L38.57 31.95L38.51 31.88L38.40 31.75L38.34 31.68L38.22 31.56L38.16 31.49L38.04 31.36L37.97 31.30L37.85 31.17L37.78 31.11L37.65 30.99L37.59 30.93L37.46 30.80L37.39 30.75L37.25 30.62L37.19 30.57L37.04 30.45L36.98 30.40L36.83 30.28L36.77 30.23L36.62 30.11L36.55 30.06L36.39 29.94L36.33 29.90L36.17 29.78L36.11 29.74L35.94 29.62L35.88 29.58L35.71 29.47L35.64 29.43L35.47 29.32L35.40 29.28L35.23 29.17L35.16 29.14L34.98 29.03L34.92 29.00L34.73 28.89L34.67 28.86L34.47 28.76L34.41 28.72L34.22 28.63L34.15 28.59L33.95 28.50L33.89 28.47L33.69 28.37L33.51 28.29L33.37 28.22L33.24 28.16L33.11 28.09L32.98 28.02L32.86 27.95L32.75 27.88L32.64 27.81L32.53 27.74L32.43 27.67L32.34 27.60L32.24 27.54L32.15 27.47L32.07 27.40L31.99 27.33L31.91 27.27L31.84 27.20L31.77 27.13L31.71 27.07L31.65 27.01L31.59 26.94L31.54 26.88L31.48 26.82L31.44 26.76L31.39 26.70L31.35 26.64L31.31 26.58L31.27 26.53L31.24 26.47L31.20 26.41L31.17 26.36L31.15 26.31L31.12 26.25L31.10 26.20L31.07 26.15L31.05 26.10L31.03 26.05L31.02 26.00L31.00 25.95L30.99 25.90L30.97 25.85L30.96 25.80L30.95 25.76L30.94 25.71L30.94 25.66L30.93 25.61L30.93 25.56L30.92 25.51L30.92 25.46L30.92 25.41L30.92 25.36L30.92 25.31L30.92 25.26L30.92 25.21L30.93 25.16L30.93 25.10L30.94 25.05L30.95 25.00L30.96 24.94L30.97 24.89L30.99 24.83L31.00 24.77L31.02 24.71L31.04 24.65L31.06 24.59L31.08 24.53L31.10 24.47L31.13 24.41L31.16 24.35L31.19 24.28L31.22 24.22L31.25 24.15L31.29 24.09L31.33 24.02L31.37 23.96L31.41 23.89L31.45 23.82L31.50 23.75L31.55 23.68L31.60 23.62L31.65 23.55L31.71 23.48L31.77 23.41L31.83 23.34L31.89 23.27L31.96 23.20L32.03 23.13L32.10 23.06L32.17 22.99L32.25 22.92L32.33 22.86L32.41 22.79L32.49 22.72L32.58 22.65L32.67 22.59L32.76 22.52L32.85 22.45L32.95 22.39L33.05 22.32L33.15 22.26L33.25 22.20L33.36 22.14L33.47 22.08L33.58 22.02L33.69 21.96L33.81 21.90L33.93 21.84L34.05 21.79L34.18 21.73L34.31 21.68L34.44 21.63L34.57 21.58L34.71 21.53L34.85 21.48L34.99 21.44L35.13 21.39L35.28 21.35L35.43 21.31L35.58 21.27L35.73 21.23L35.89 21.20L36.05 21.17L36.21 21.14L36.38 21.11L36.55 21.08L36.72 21.05L36.89 21.03L37.06 21.01L37.24 20.99L37.42 20.98L37.61 20.97L37.79 20.95L37.98 20.95L38.17 20.94L38.37 20.94L38.57 20.94L38.77 20.94L38.97 20.95L39.17 20.95L39.38 20.97L39.59 20.98L39.80 21.00L40.02 21.02L40.24 21.04L40.46 21.07L40.68 21.10L40.90 21.13L41.13 21.17L41.36 21.21L41.60 21.25L41.83 21.30L42.07 21.35L42.31 21.41L42.55 21.47L42.80 21.53L43.05 21.60L43.30 21.67L43.55 21.74L43.83 21.82L44.08 21.89L44.34 21.94L44.60 21.98L44.86 22.00L45.12 22.00L45.38 21.98L45.64 21.95L45.90 21.90L46.15 21.83L46.40 21.75L46.64 21.65L46.88 21.53L47.10 21.40L47.32 21.26L47.53 21.10L47.73 20.93L47.91 20.74L48.09 20.55L48.25 20.34L48.39 20.12L48.52 19.89L48.64 19.66L48.74 19.42L48.82 19.17L48.89 18.92L48.94 18.66L48.98 18.40L49.00 18.14L49.00 17.88L48.98 17.62L48.95 17.36L48.90 17.10L48.83 16.85L48.75 16.60L48.65 16.36L48.53 16.12L48.40 15.90L48.26 15.68L48.10 15.47L47.93 15.27L47.74 15.09L47.55 14.91L47.34 14.75L47.12 14.61L46.89 14.48L46.66 14.36L46.42 14.26L46.17 14.18L45.87 14.08Z" fill="#2E8BFF"/></svg>
